<svg xmlns="http://www.w3.org/2000/svg" width="1200" height="850">
<defs><style>
.t{font:700 22px Arial}.s{font:16px Arial}.b{fill:#f8fafc;stroke:#0f766e;stroke-width:2;rx:8}
.l{stroke:#475569;stroke-width:2;marker-end:url(#a)}
</style><marker id="a" markerWidth="10" markerHeight="10" refX="8" refY="3" orient="auto"><path d="M0,0 L8,3 L0,6 Z" fill="#475569"/></marker></defs>
<text x="430" y="40" class="t">VisionCraft AI Generation Flow</text>
<rect x="360" y="80" width="480" height="60" class="b"/><text x="430" y="115" class="s">User Input Prompt</text><line x1="600" y1="140" x2="600" y2="160" class="l"/><rect x="360" y="160" width="480" height="60" class="b"/><text x="430" y="195" class="s">Prompt Enhancement</text><line x1="600" y1="220" x2="600" y2="240" class="l"/><rect x="360" y="240" width="480" height="60" class="b"/><text x="430" y="275" class="s">Generate via Doubao</text><line x1="600" y1="300" x2="600" y2="320" class="l"/><rect x="360" y="320" width="480" height="60" class="b"/><text x="430" y="355" class="s">Upload to Supabase Storage</text><line x1="600" y1="380" x2="600" y2="400" class="l"/><rect x="360" y="400" width="480" height="60" class="b"/><text x="430" y="435" class="s">Save Metadata to PostgreSQL</text><line x1="600" y1="460" x2="600" y2="480" class="l"/><rect x="360" y="480" width="480" height="60" class="b"/><text x="430" y="515" class="s">Display Artwork</text></svg>